<mxfile host="app.diagrams.net" agent="Mozilla/5.0 (Windows NT 10.0; Win64; x64) AppleWebKit/537.36 (KHTML, like Gecko) Chrome/132.0.0.0 Safari/537.36 OPR/117.0.0.0" version="26.2.13" pages="3">
  <diagram name="sequence login" id="2YBvvXClWsGukQMizWep">
    <mxGraphModel dx="1387" dy="797" grid="0" gridSize="10" guides="1" tooltips="1" connect="1" arrows="1" fold="1" page="1" pageScale="1" pageWidth="850" pageHeight="1100" math="0" shadow="0">
      <root>
        <mxCell id="0" />
        <mxCell id="1" parent="0" />
        <mxCell id="KsdGwlbUkbVUXTfyqdBP-5" value="" style="shape=umlLifeline;perimeter=lifelinePerimeter;whiteSpace=wrap;html=1;container=1;dropTarget=0;collapsible=0;recursiveResize=0;outlineConnect=0;portConstraint=eastwest;newEdgeStyle={&quot;curved&quot;:0,&quot;rounded&quot;:0};participant=umlActor;" vertex="1" parent="1">
          <mxGeometry x="105" y="218" width="20" height="300" as="geometry" />
        </mxCell>
        <mxCell id="KsdGwlbUkbVUXTfyqdBP-12" value="" style="html=1;points=[[0,0,0,0,5],[0,1,0,0,-5],[1,0,0,0,5],[1,1,0,0,-5]];perimeter=orthogonalPerimeter;outlineConnect=0;targetShapes=umlLifeline;portConstraint=eastwest;newEdgeStyle={&quot;curved&quot;:0,&quot;rounded&quot;:0};" vertex="1" parent="KsdGwlbUkbVUXTfyqdBP-5">
          <mxGeometry x="5" y="67" width="10" height="200" as="geometry" />
        </mxCell>
        <mxCell id="KsdGwlbUkbVUXTfyqdBP-6" value="" style="shape=umlLifeline;perimeter=lifelinePerimeter;whiteSpace=wrap;html=1;container=1;dropTarget=0;collapsible=0;recursiveResize=0;outlineConnect=0;portConstraint=eastwest;newEdgeStyle={&quot;curved&quot;:0,&quot;rounded&quot;:0};participant=umlBoundary;" vertex="1" parent="1">
          <mxGeometry x="264" y="215" width="50" height="300" as="geometry" />
        </mxCell>
        <mxCell id="KsdGwlbUkbVUXTfyqdBP-15" value="" style="html=1;points=[[0,0,0,0,5],[0,1,0,0,-5],[1,0,0,0,5],[1,1,0,0,-5]];perimeter=orthogonalPerimeter;outlineConnect=0;targetShapes=umlLifeline;portConstraint=eastwest;newEdgeStyle={&quot;curved&quot;:0,&quot;rounded&quot;:0};" vertex="1" parent="KsdGwlbUkbVUXTfyqdBP-6">
          <mxGeometry x="20" y="67" width="10" height="197" as="geometry" />
        </mxCell>
        <mxCell id="KsdGwlbUkbVUXTfyqdBP-7" value="" style="shape=umlLifeline;perimeter=lifelinePerimeter;whiteSpace=wrap;html=1;container=1;dropTarget=0;collapsible=0;recursiveResize=0;outlineConnect=0;portConstraint=eastwest;newEdgeStyle={&quot;curved&quot;:0,&quot;rounded&quot;:0};participant=umlEntity;" vertex="1" parent="1">
          <mxGeometry x="672" y="221" width="40" height="300" as="geometry" />
        </mxCell>
        <mxCell id="KsdGwlbUkbVUXTfyqdBP-21" value="" style="html=1;points=[[0,0,0,0,5],[0,1,0,0,-5],[1,0,0,0,5],[1,1,0,0,-5]];perimeter=orthogonalPerimeter;outlineConnect=0;targetShapes=umlLifeline;portConstraint=eastwest;newEdgeStyle={&quot;curved&quot;:0,&quot;rounded&quot;:0};" vertex="1" parent="KsdGwlbUkbVUXTfyqdBP-7">
          <mxGeometry x="15" y="107" width="10" height="101" as="geometry" />
        </mxCell>
        <mxCell id="KsdGwlbUkbVUXTfyqdBP-24" value="" style="edgeStyle=elbowEdgeStyle;fontSize=12;html=1;endArrow=blockThin;endFill=1;rounded=0;" edge="1" parent="KsdGwlbUkbVUXTfyqdBP-7" source="KsdGwlbUkbVUXTfyqdBP-21" target="KsdGwlbUkbVUXTfyqdBP-21">
          <mxGeometry width="160" relative="1" as="geometry">
            <mxPoint x="-196" y="130" as="sourcePoint" />
            <mxPoint x="25" y="130" as="targetPoint" />
            <Array as="points">
              <mxPoint x="101" y="158" />
            </Array>
          </mxGeometry>
        </mxCell>
        <mxCell id="KsdGwlbUkbVUXTfyqdBP-8" value="" style="shape=umlLifeline;perimeter=lifelinePerimeter;whiteSpace=wrap;html=1;container=1;dropTarget=0;collapsible=0;recursiveResize=0;outlineConnect=0;portConstraint=eastwest;newEdgeStyle={&quot;curved&quot;:0,&quot;rounded&quot;:0};participant=umlControl;" vertex="1" parent="1">
          <mxGeometry x="441" y="212" width="40" height="300" as="geometry" />
        </mxCell>
        <mxCell id="KsdGwlbUkbVUXTfyqdBP-18" value="" style="html=1;points=[[0,0,0,0,5],[0,1,0,0,-5],[1,0,0,0,5],[1,1,0,0,-5]];perimeter=orthogonalPerimeter;outlineConnect=0;targetShapes=umlLifeline;portConstraint=eastwest;newEdgeStyle={&quot;curved&quot;:0,&quot;rounded&quot;:0};" vertex="1" parent="KsdGwlbUkbVUXTfyqdBP-8">
          <mxGeometry x="15" y="91" width="10" height="139" as="geometry" />
        </mxCell>
        <mxCell id="KsdGwlbUkbVUXTfyqdBP-9" value="View đăng nhập" style="text;html=1;align=center;verticalAlign=middle;resizable=0;points=[];autosize=1;strokeColor=none;fillColor=none;" vertex="1" parent="1">
          <mxGeometry x="241" y="189" width="104" height="26" as="geometry" />
        </mxCell>
        <mxCell id="KsdGwlbUkbVUXTfyqdBP-10" value="User" style="text;html=1;align=center;verticalAlign=middle;resizable=0;points=[];autosize=1;strokeColor=none;fillColor=none;" vertex="1" parent="1">
          <mxGeometry x="91" y="189" width="43" height="26" as="geometry" />
        </mxCell>
        <mxCell id="KsdGwlbUkbVUXTfyqdBP-13" value="controller user" style="text;html=1;align=center;verticalAlign=middle;resizable=0;points=[];autosize=1;strokeColor=none;fillColor=none;" vertex="1" parent="1">
          <mxGeometry x="412" y="189" width="94" height="26" as="geometry" />
        </mxCell>
        <mxCell id="KsdGwlbUkbVUXTfyqdBP-14" value="users collection" style="text;html=1;align=center;verticalAlign=middle;resizable=0;points=[];autosize=1;strokeColor=none;fillColor=none;" vertex="1" parent="1">
          <mxGeometry x="641.5" y="195" width="101" height="26" as="geometry" />
        </mxCell>
        <mxCell id="KsdGwlbUkbVUXTfyqdBP-16" value="" style="edgeStyle=elbowEdgeStyle;fontSize=12;html=1;endArrow=blockThin;endFill=1;rounded=0;" edge="1" parent="1" source="KsdGwlbUkbVUXTfyqdBP-12" target="KsdGwlbUkbVUXTfyqdBP-15">
          <mxGeometry width="160" relative="1" as="geometry">
            <mxPoint x="345" y="411" as="sourcePoint" />
            <mxPoint x="505" y="411" as="targetPoint" />
            <Array as="points">
              <mxPoint x="204" y="315" />
            </Array>
          </mxGeometry>
        </mxCell>
        <mxCell id="KsdGwlbUkbVUXTfyqdBP-17" value="Nhập thông tin đăng nhập" style="text;html=1;align=center;verticalAlign=middle;resizable=0;points=[];autosize=1;strokeColor=none;fillColor=none;" vertex="1" parent="1">
          <mxGeometry x="125" y="295" width="156" height="26" as="geometry" />
        </mxCell>
        <mxCell id="KsdGwlbUkbVUXTfyqdBP-19" value="" style="edgeStyle=elbowEdgeStyle;fontSize=12;html=1;endArrow=blockThin;endFill=1;rounded=0;" edge="1" parent="1" source="KsdGwlbUkbVUXTfyqdBP-15" target="KsdGwlbUkbVUXTfyqdBP-18">
          <mxGeometry width="160" relative="1" as="geometry">
            <mxPoint x="345" y="411" as="sourcePoint" />
            <mxPoint x="505" y="411" as="targetPoint" />
            <Array as="points">
              <mxPoint x="367" y="330" />
              <mxPoint x="393" y="315" />
            </Array>
          </mxGeometry>
        </mxCell>
        <mxCell id="KsdGwlbUkbVUXTfyqdBP-20" value="Kiểm tra thông tin hợp lệ" style="text;html=1;align=center;verticalAlign=middle;resizable=0;points=[];autosize=1;strokeColor=none;fillColor=none;" vertex="1" parent="1">
          <mxGeometry x="297" y="307" width="149" height="26" as="geometry" />
        </mxCell>
        <mxCell id="KsdGwlbUkbVUXTfyqdBP-22" value="" style="edgeStyle=elbowEdgeStyle;fontSize=12;html=1;endArrow=blockThin;endFill=1;rounded=0;" edge="1" parent="1" source="KsdGwlbUkbVUXTfyqdBP-18" target="KsdGwlbUkbVUXTfyqdBP-21">
          <mxGeometry width="160" relative="1" as="geometry">
            <mxPoint x="468" y="378" as="sourcePoint" />
            <mxPoint x="628" y="378" as="targetPoint" />
            <Array as="points">
              <mxPoint x="558" y="341" />
            </Array>
          </mxGeometry>
        </mxCell>
        <mxCell id="KsdGwlbUkbVUXTfyqdBP-23" value="Kiểm tra bản ghi trong database" style="text;html=1;align=center;verticalAlign=middle;resizable=0;points=[];autosize=1;strokeColor=none;fillColor=none;" vertex="1" parent="1">
          <mxGeometry x="486" y="316" width="189" height="26" as="geometry" />
        </mxCell>
        <mxCell id="KsdGwlbUkbVUXTfyqdBP-25" value="Kiểm tra role user" style="text;html=1;align=center;verticalAlign=middle;resizable=0;points=[];autosize=1;strokeColor=none;fillColor=none;" vertex="1" parent="1">
          <mxGeometry x="692" y="345" width="113" height="26" as="geometry" />
        </mxCell>
        <mxCell id="KsdGwlbUkbVUXTfyqdBP-26" value="Trả về dữ liệu" style="html=1;verticalAlign=bottom;endArrow=open;dashed=1;endSize=8;curved=0;rounded=0;" edge="1" parent="1" source="KsdGwlbUkbVUXTfyqdBP-7" target="KsdGwlbUkbVUXTfyqdBP-8">
          <mxGeometry relative="1" as="geometry">
            <mxPoint x="665" y="408" as="sourcePoint" />
            <mxPoint x="585" y="408" as="targetPoint" />
            <Array as="points">
              <mxPoint x="574" y="405" />
            </Array>
          </mxGeometry>
        </mxCell>
        <mxCell id="KsdGwlbUkbVUXTfyqdBP-27" value="Trả về dữ liệu" style="html=1;verticalAlign=bottom;endArrow=open;dashed=1;endSize=8;curved=0;rounded=0;" edge="1" parent="1" source="KsdGwlbUkbVUXTfyqdBP-18" target="KsdGwlbUkbVUXTfyqdBP-6">
          <mxGeometry relative="1" as="geometry">
            <mxPoint x="576" y="490" as="sourcePoint" />
            <mxPoint x="345" y="490" as="targetPoint" />
            <Array as="points">
              <mxPoint x="445" y="427" />
            </Array>
          </mxGeometry>
        </mxCell>
        <mxCell id="KsdGwlbUkbVUXTfyqdBP-28" value="Hiển thị kết quả" style="html=1;verticalAlign=bottom;endArrow=open;dashed=1;endSize=8;curved=0;rounded=0;" edge="1" parent="1" source="KsdGwlbUkbVUXTfyqdBP-15" target="KsdGwlbUkbVUXTfyqdBP-12">
          <mxGeometry relative="1" as="geometry">
            <mxPoint x="286.5" y="558" as="sourcePoint" />
            <mxPoint x="119.5" y="558" as="targetPoint" />
            <Array as="points">
              <mxPoint x="264" y="472" />
            </Array>
          </mxGeometry>
        </mxCell>
      </root>
    </mxGraphModel>
  </diagram>
  <diagram name="Copy of sequence login" id="8tC_aMgOr9E9hWs3oioI">
    <mxGraphModel dx="1387" dy="797" grid="0" gridSize="10" guides="1" tooltips="1" connect="1" arrows="1" fold="1" page="0" pageScale="1" pageWidth="850" pageHeight="1100" math="0" shadow="0">
      <root>
        <mxCell id="9nLJJ0F7ikuXCO1Y2BuM-0" />
        <mxCell id="9nLJJ0F7ikuXCO1Y2BuM-1" parent="9nLJJ0F7ikuXCO1Y2BuM-0" />
        <mxCell id="9nLJJ0F7ikuXCO1Y2BuM-2" value="" style="shape=umlLifeline;perimeter=lifelinePerimeter;whiteSpace=wrap;html=1;container=1;dropTarget=0;collapsible=0;recursiveResize=0;outlineConnect=0;portConstraint=eastwest;newEdgeStyle={&quot;curved&quot;:0,&quot;rounded&quot;:0};participant=umlActor;" vertex="1" parent="9nLJJ0F7ikuXCO1Y2BuM-1">
          <mxGeometry x="105" y="218" width="20" height="596" as="geometry" />
        </mxCell>
        <mxCell id="9nLJJ0F7ikuXCO1Y2BuM-3" value="" style="html=1;points=[[0,0,0,0,5],[0,1,0,0,-5],[1,0,0,0,5],[1,1,0,0,-5]];perimeter=orthogonalPerimeter;outlineConnect=0;targetShapes=umlLifeline;portConstraint=eastwest;newEdgeStyle={&quot;curved&quot;:0,&quot;rounded&quot;:0};" vertex="1" parent="9nLJJ0F7ikuXCO1Y2BuM-2">
          <mxGeometry x="5" y="67" width="10" height="481" as="geometry" />
        </mxCell>
        <mxCell id="9nLJJ0F7ikuXCO1Y2BuM-4" value="" style="shape=umlLifeline;perimeter=lifelinePerimeter;whiteSpace=wrap;html=1;container=1;dropTarget=0;collapsible=0;recursiveResize=0;outlineConnect=0;portConstraint=eastwest;newEdgeStyle={&quot;curved&quot;:0,&quot;rounded&quot;:0};participant=umlBoundary;" vertex="1" parent="9nLJJ0F7ikuXCO1Y2BuM-1">
          <mxGeometry x="218" y="218" width="50" height="592" as="geometry" />
        </mxCell>
        <mxCell id="9nLJJ0F7ikuXCO1Y2BuM-5" value="" style="html=1;points=[[0,0,0,0,5],[0,1,0,0,-5],[1,0,0,0,5],[1,1,0,0,-5]];perimeter=orthogonalPerimeter;outlineConnect=0;targetShapes=umlLifeline;portConstraint=eastwest;newEdgeStyle={&quot;curved&quot;:0,&quot;rounded&quot;:0};" vertex="1" parent="9nLJJ0F7ikuXCO1Y2BuM-4">
          <mxGeometry x="20" y="63" width="10" height="457" as="geometry" />
        </mxCell>
        <mxCell id="9nLJJ0F7ikuXCO1Y2BuM-6" value="" style="shape=umlLifeline;perimeter=lifelinePerimeter;whiteSpace=wrap;html=1;container=1;dropTarget=0;collapsible=0;recursiveResize=0;outlineConnect=0;portConstraint=eastwest;newEdgeStyle={&quot;curved&quot;:0,&quot;rounded&quot;:0};participant=umlEntity;" vertex="1" parent="9nLJJ0F7ikuXCO1Y2BuM-1">
          <mxGeometry x="716" y="218" width="40" height="597" as="geometry" />
        </mxCell>
        <mxCell id="9nLJJ0F7ikuXCO1Y2BuM-7" value="" style="html=1;points=[[0,0,0,0,5],[0,1,0,0,-5],[1,0,0,0,5],[1,1,0,0,-5]];perimeter=orthogonalPerimeter;outlineConnect=0;targetShapes=umlLifeline;portConstraint=eastwest;newEdgeStyle={&quot;curved&quot;:0,&quot;rounded&quot;:0};" vertex="1" parent="9nLJJ0F7ikuXCO1Y2BuM-6">
          <mxGeometry x="15" y="188.5" width="10" height="69" as="geometry" />
        </mxCell>
        <mxCell id="9nLJJ0F7ikuXCO1Y2BuM-9" value="" style="shape=umlLifeline;perimeter=lifelinePerimeter;whiteSpace=wrap;html=1;container=1;dropTarget=0;collapsible=0;recursiveResize=0;outlineConnect=0;portConstraint=eastwest;newEdgeStyle={&quot;curved&quot;:0,&quot;rounded&quot;:0};participant=umlControl;" vertex="1" parent="9nLJJ0F7ikuXCO1Y2BuM-1">
          <mxGeometry x="356" y="221" width="40" height="601" as="geometry" />
        </mxCell>
        <mxCell id="9nLJJ0F7ikuXCO1Y2BuM-10" value="" style="html=1;points=[[0,0,0,0,5],[0,1,0,0,-5],[1,0,0,0,5],[1,1,0,0,-5]];perimeter=orthogonalPerimeter;outlineConnect=0;targetShapes=umlLifeline;portConstraint=eastwest;newEdgeStyle={&quot;curved&quot;:0,&quot;rounded&quot;:0};" vertex="1" parent="9nLJJ0F7ikuXCO1Y2BuM-9">
          <mxGeometry x="15" y="393" width="10" height="127" as="geometry" />
        </mxCell>
        <mxCell id="9nLJJ0F7ikuXCO1Y2BuM-11" value="view new_booking" style="text;html=1;align=center;verticalAlign=middle;resizable=0;points=[];autosize=1;strokeColor=none;fillColor=none;" vertex="1" parent="9nLJJ0F7ikuXCO1Y2BuM-1">
          <mxGeometry x="190" y="192" width="116" height="26" as="geometry" />
        </mxCell>
        <mxCell id="9nLJJ0F7ikuXCO1Y2BuM-12" value="User" style="text;html=1;align=center;verticalAlign=middle;resizable=0;points=[];autosize=1;strokeColor=none;fillColor=none;" vertex="1" parent="9nLJJ0F7ikuXCO1Y2BuM-1">
          <mxGeometry x="91" y="189" width="43" height="26" as="geometry" />
        </mxCell>
        <mxCell id="9nLJJ0F7ikuXCO1Y2BuM-13" value="controller booking" style="text;html=1;align=center;verticalAlign=middle;resizable=0;points=[];autosize=1;strokeColor=none;fillColor=none;" vertex="1" parent="9nLJJ0F7ikuXCO1Y2BuM-1">
          <mxGeometry x="322" y="192" width="113" height="26" as="geometry" />
        </mxCell>
        <mxCell id="SOhxgNJ4NdXpTSdJjQIJ-0" value="" style="shape=umlLifeline;perimeter=lifelinePerimeter;whiteSpace=wrap;html=1;container=1;dropTarget=0;collapsible=0;recursiveResize=0;outlineConnect=0;portConstraint=eastwest;newEdgeStyle={&quot;curved&quot;:0,&quot;rounded&quot;:0};participant=umlControl;" vertex="1" parent="9nLJJ0F7ikuXCO1Y2BuM-1">
          <mxGeometry x="475" y="218" width="40" height="621" as="geometry" />
        </mxCell>
        <mxCell id="SOhxgNJ4NdXpTSdJjQIJ-1" value="" style="html=1;points=[[0,0,0,0,5],[0,1,0,0,-5],[1,0,0,0,5],[1,1,0,0,-5]];perimeter=orthogonalPerimeter;outlineConnect=0;targetShapes=umlLifeline;portConstraint=eastwest;newEdgeStyle={&quot;curved&quot;:0,&quot;rounded&quot;:0};" vertex="1" parent="SOhxgNJ4NdXpTSdJjQIJ-0">
          <mxGeometry x="15" y="159" width="10" height="114" as="geometry" />
        </mxCell>
        <mxCell id="SOhxgNJ4NdXpTSdJjQIJ-2" value="controller room type" style="text;html=1;align=center;verticalAlign=middle;resizable=0;points=[];autosize=1;strokeColor=none;fillColor=none;" vertex="1" parent="9nLJJ0F7ikuXCO1Y2BuM-1">
          <mxGeometry x="440" y="192" width="124" height="26" as="geometry" />
        </mxCell>
        <mxCell id="SOhxgNJ4NdXpTSdJjQIJ-5" value="" style="shape=umlLifeline;perimeter=lifelinePerimeter;whiteSpace=wrap;html=1;container=1;dropTarget=0;collapsible=0;recursiveResize=0;outlineConnect=0;portConstraint=eastwest;newEdgeStyle={&quot;curved&quot;:0,&quot;rounded&quot;:0};participant=umlEntity;" vertex="1" parent="9nLJJ0F7ikuXCO1Y2BuM-1">
          <mxGeometry x="838" y="218" width="40" height="608" as="geometry" />
        </mxCell>
        <mxCell id="SOhxgNJ4NdXpTSdJjQIJ-6" value="" style="html=1;points=[[0,0,0,0,5],[0,1,0,0,-5],[1,0,0,0,5],[1,1,0,0,-5]];perimeter=orthogonalPerimeter;outlineConnect=0;targetShapes=umlLifeline;portConstraint=eastwest;newEdgeStyle={&quot;curved&quot;:0,&quot;rounded&quot;:0};" vertex="1" parent="SOhxgNJ4NdXpTSdJjQIJ-5">
          <mxGeometry x="15" y="282" width="10" height="69" as="geometry" />
        </mxCell>
        <mxCell id="SOhxgNJ4NdXpTSdJjQIJ-41" value="" style="html=1;points=[[0,0,0,0,5],[0,1,0,0,-5],[1,0,0,0,5],[1,1,0,0,-5]];perimeter=orthogonalPerimeter;outlineConnect=0;targetShapes=umlLifeline;portConstraint=eastwest;newEdgeStyle={&quot;curved&quot;:0,&quot;rounded&quot;:0};" vertex="1" parent="SOhxgNJ4NdXpTSdJjQIJ-5">
          <mxGeometry x="15" y="386" width="10" height="69" as="geometry" />
        </mxCell>
        <mxCell id="SOhxgNJ4NdXpTSdJjQIJ-7" value="" style="shape=umlLifeline;perimeter=lifelinePerimeter;whiteSpace=wrap;html=1;container=1;dropTarget=0;collapsible=0;recursiveResize=0;outlineConnect=0;portConstraint=eastwest;newEdgeStyle={&quot;curved&quot;:0,&quot;rounded&quot;:0};participant=umlEntity;" vertex="1" parent="9nLJJ0F7ikuXCO1Y2BuM-1">
          <mxGeometry x="944" y="215" width="40" height="618" as="geometry" />
        </mxCell>
        <mxCell id="SOhxgNJ4NdXpTSdJjQIJ-8" value="" style="html=1;points=[[0,0,0,0,5],[0,1,0,0,-5],[1,0,0,0,5],[1,1,0,0,-5]];perimeter=orthogonalPerimeter;outlineConnect=0;targetShapes=umlLifeline;portConstraint=eastwest;newEdgeStyle={&quot;curved&quot;:0,&quot;rounded&quot;:0};" vertex="1" parent="SOhxgNJ4NdXpTSdJjQIJ-7">
          <mxGeometry x="15" y="384" width="10" height="167" as="geometry" />
        </mxCell>
        <mxCell id="SOhxgNJ4NdXpTSdJjQIJ-9" value="" style="shape=umlLifeline;perimeter=lifelinePerimeter;whiteSpace=wrap;html=1;container=1;dropTarget=0;collapsible=0;recursiveResize=0;outlineConnect=0;portConstraint=eastwest;newEdgeStyle={&quot;curved&quot;:0,&quot;rounded&quot;:0};participant=umlControl;" vertex="1" parent="9nLJJ0F7ikuXCO1Y2BuM-1">
          <mxGeometry x="595" y="218" width="40" height="593" as="geometry" />
        </mxCell>
        <mxCell id="SOhxgNJ4NdXpTSdJjQIJ-10" value="" style="html=1;points=[[0,0,0,0,5],[0,1,0,0,-5],[1,0,0,0,5],[1,1,0,0,-5]];perimeter=orthogonalPerimeter;outlineConnect=0;targetShapes=umlLifeline;portConstraint=eastwest;newEdgeStyle={&quot;curved&quot;:0,&quot;rounded&quot;:0};" vertex="1" parent="SOhxgNJ4NdXpTSdJjQIJ-9">
          <mxGeometry x="15" y="284" width="10" height="71" as="geometry" />
        </mxCell>
        <mxCell id="SOhxgNJ4NdXpTSdJjQIJ-32" value="" style="html=1;points=[[0,0,0,0,5],[0,1,0,0,-5],[1,0,0,0,5],[1,1,0,0,-5]];perimeter=orthogonalPerimeter;outlineConnect=0;targetShapes=umlLifeline;portConstraint=eastwest;newEdgeStyle={&quot;curved&quot;:0,&quot;rounded&quot;:0};" vertex="1" parent="SOhxgNJ4NdXpTSdJjQIJ-9">
          <mxGeometry x="15" y="392" width="10" height="71" as="geometry" />
        </mxCell>
        <mxCell id="SOhxgNJ4NdXpTSdJjQIJ-11" value="controller room&amp;nbsp;" style="text;html=1;align=center;verticalAlign=middle;resizable=0;points=[];autosize=1;strokeColor=none;fillColor=none;" vertex="1" parent="9nLJJ0F7ikuXCO1Y2BuM-1">
          <mxGeometry x="564.5" y="192" width="101" height="26" as="geometry" />
        </mxCell>
        <mxCell id="SOhxgNJ4NdXpTSdJjQIJ-12" value="tbl roomTypes" style="text;html=1;align=center;verticalAlign=middle;resizable=0;points=[];autosize=1;strokeColor=none;fillColor=none;" vertex="1" parent="9nLJJ0F7ikuXCO1Y2BuM-1">
          <mxGeometry x="685" y="192" width="93" height="26" as="geometry" />
        </mxCell>
        <mxCell id="SOhxgNJ4NdXpTSdJjQIJ-13" value="tbl rooms" style="text;html=1;align=center;verticalAlign=middle;resizable=0;points=[];autosize=1;strokeColor=none;fillColor=none;" vertex="1" parent="9nLJJ0F7ikuXCO1Y2BuM-1">
          <mxGeometry x="824.5" y="195" width="67" height="26" as="geometry" />
        </mxCell>
        <mxCell id="SOhxgNJ4NdXpTSdJjQIJ-14" value="tbl bookings" style="text;html=1;align=center;verticalAlign=middle;resizable=0;points=[];autosize=1;strokeColor=none;fillColor=none;" vertex="1" parent="9nLJJ0F7ikuXCO1Y2BuM-1">
          <mxGeometry x="925" y="192" width="82" height="26" as="geometry" />
        </mxCell>
        <mxCell id="SOhxgNJ4NdXpTSdJjQIJ-15" value="Chọn loại booking" style="html=1;verticalAlign=bottom;endArrow=block;curved=0;rounded=0;" edge="1" parent="9nLJJ0F7ikuXCO1Y2BuM-1" source="9nLJJ0F7ikuXCO1Y2BuM-2" target="9nLJJ0F7ikuXCO1Y2BuM-5">
          <mxGeometry width="80" relative="1" as="geometry">
            <mxPoint x="385" y="410" as="sourcePoint" />
            <mxPoint x="465" y="410" as="targetPoint" />
            <Array as="points">
              <mxPoint x="196" y="303" />
            </Array>
          </mxGeometry>
        </mxCell>
        <mxCell id="SOhxgNJ4NdXpTSdJjQIJ-16" value="HIển thị thời gian&amp;nbsp;&lt;div&gt;check in check out&amp;nbsp;&lt;/div&gt;&lt;div&gt;tương ứng&lt;/div&gt;" style="html=1;verticalAlign=bottom;endArrow=open;dashed=1;endSize=8;curved=0;rounded=0;" edge="1" parent="9nLJJ0F7ikuXCO1Y2BuM-1" source="9nLJJ0F7ikuXCO1Y2BuM-4" target="9nLJJ0F7ikuXCO1Y2BuM-3">
          <mxGeometry x="-0.0041" relative="1" as="geometry">
            <mxPoint x="465" y="410" as="sourcePoint" />
            <mxPoint x="385" y="410" as="targetPoint" />
            <Array as="points">
              <mxPoint x="186" y="375" />
            </Array>
            <mxPoint as="offset" />
          </mxGeometry>
        </mxCell>
        <mxCell id="SOhxgNJ4NdXpTSdJjQIJ-17" value="Cấu hình thời gian&amp;nbsp;&lt;div&gt;đặt phòng&lt;/div&gt;" style="html=1;verticalAlign=bottom;endArrow=block;curved=0;rounded=0;" edge="1" parent="9nLJJ0F7ikuXCO1Y2BuM-1">
          <mxGeometry width="80" relative="1" as="geometry">
            <mxPoint x="119" y="423" as="sourcePoint" />
            <mxPoint x="237" y="423" as="targetPoint" />
            <Array as="points">
              <mxPoint x="205" y="423" />
            </Array>
          </mxGeometry>
        </mxCell>
        <mxCell id="SOhxgNJ4NdXpTSdJjQIJ-19" value="Gửi yêu cầu lấy loại phòng" style="html=1;verticalAlign=bottom;endArrow=block;curved=0;rounded=0;" edge="1" parent="9nLJJ0F7ikuXCO1Y2BuM-1" source="9nLJJ0F7ikuXCO1Y2BuM-5" target="SOhxgNJ4NdXpTSdJjQIJ-0">
          <mxGeometry width="80" relative="1" as="geometry">
            <mxPoint x="385" y="410" as="sourcePoint" />
            <mxPoint x="465" y="410" as="targetPoint" />
            <Array as="points">
              <mxPoint x="368" y="425" />
            </Array>
          </mxGeometry>
        </mxCell>
        <mxCell id="SOhxgNJ4NdXpTSdJjQIJ-20" value="Truy vấn các loại phòng" style="html=1;verticalAlign=bottom;startArrow=oval;startFill=1;endArrow=block;startSize=8;curved=0;rounded=0;" edge="1" parent="9nLJJ0F7ikuXCO1Y2BuM-1" source="SOhxgNJ4NdXpTSdJjQIJ-1" target="9nLJJ0F7ikuXCO1Y2BuM-7">
          <mxGeometry width="60" relative="1" as="geometry">
            <mxPoint x="395" y="410" as="sourcePoint" />
            <mxPoint x="455" y="410" as="targetPoint" />
            <Array as="points">
              <mxPoint x="616" y="426" />
            </Array>
          </mxGeometry>
        </mxCell>
        <mxCell id="SOhxgNJ4NdXpTSdJjQIJ-21" value="Hiển thị kết quả&amp;nbsp;" style="html=1;verticalAlign=bottom;endArrow=open;dashed=1;endSize=8;curved=0;rounded=0;" edge="1" parent="9nLJJ0F7ikuXCO1Y2BuM-1" source="9nLJJ0F7ikuXCO1Y2BuM-7" target="SOhxgNJ4NdXpTSdJjQIJ-1">
          <mxGeometry relative="1" as="geometry">
            <mxPoint x="739.5" y="458" as="sourcePoint" />
            <mxPoint x="505" y="458" as="targetPoint" />
            <Array as="points">
              <mxPoint x="609" y="460" />
            </Array>
          </mxGeometry>
        </mxCell>
        <mxCell id="SOhxgNJ4NdXpTSdJjQIJ-22" value="Hiển thị kết quả&amp;nbsp;" style="html=1;verticalAlign=bottom;endArrow=open;dashed=1;endSize=8;curved=0;rounded=0;" edge="1" parent="9nLJJ0F7ikuXCO1Y2BuM-1" source="SOhxgNJ4NdXpTSdJjQIJ-0" target="9nLJJ0F7ikuXCO1Y2BuM-5">
          <mxGeometry relative="1" as="geometry">
            <mxPoint x="435" y="505" as="sourcePoint" />
            <mxPoint x="204" y="505" as="targetPoint" />
            <Array as="points">
              <mxPoint x="313" y="482" />
            </Array>
          </mxGeometry>
        </mxCell>
        <mxCell id="SOhxgNJ4NdXpTSdJjQIJ-23" value="Hiển thị danh sách&amp;nbsp;&lt;div&gt;loại phòng&lt;/div&gt;" style="html=1;verticalAlign=bottom;endArrow=open;dashed=1;endSize=8;curved=0;rounded=0;" edge="1" parent="9nLJJ0F7ikuXCO1Y2BuM-1" source="9nLJJ0F7ikuXCO1Y2BuM-4" target="9nLJJ0F7ikuXCO1Y2BuM-2">
          <mxGeometry relative="1" as="geometry">
            <mxPoint x="465" y="410" as="sourcePoint" />
            <mxPoint x="385" y="410" as="targetPoint" />
            <Array as="points">
              <mxPoint x="201" y="465" />
            </Array>
          </mxGeometry>
        </mxCell>
        <mxCell id="SOhxgNJ4NdXpTSdJjQIJ-24" value="Chọn loại phòng&amp;nbsp;&lt;div&gt;muốn đặt và&amp;nbsp;&lt;/div&gt;&lt;div&gt;số lượng phòng&lt;/div&gt;" style="html=1;verticalAlign=bottom;endArrow=block;curved=0;rounded=0;" edge="1" parent="9nLJJ0F7ikuXCO1Y2BuM-1" source="9nLJJ0F7ikuXCO1Y2BuM-3" target="9nLJJ0F7ikuXCO1Y2BuM-5">
          <mxGeometry width="80" relative="1" as="geometry">
            <mxPoint x="385" y="510" as="sourcePoint" />
            <mxPoint x="243" y="510" as="targetPoint" />
            <Array as="points">
              <mxPoint x="205" y="527" />
            </Array>
          </mxGeometry>
        </mxCell>
        <mxCell id="SOhxgNJ4NdXpTSdJjQIJ-25" value="Gửi yêu cầu lấy dữ liệu phòng theo loại phòng" style="html=1;verticalAlign=bottom;endArrow=block;curved=0;rounded=0;" edge="1" parent="9nLJJ0F7ikuXCO1Y2BuM-1" source="9nLJJ0F7ikuXCO1Y2BuM-4" target="SOhxgNJ4NdXpTSdJjQIJ-9">
          <mxGeometry width="80" relative="1" as="geometry">
            <mxPoint x="385" y="510" as="sourcePoint" />
            <mxPoint x="465" y="510" as="targetPoint" />
            <Array as="points">
              <mxPoint x="428" y="529" />
            </Array>
          </mxGeometry>
        </mxCell>
        <mxCell id="SOhxgNJ4NdXpTSdJjQIJ-26" value="Truy vấn số phòng theo loại phòng,&lt;div&gt;số lượng phòng đặt lấy theo phòng&lt;/div&gt;&lt;div&gt;mới nhất đổ xuống&lt;/div&gt;" style="html=1;verticalAlign=bottom;endArrow=block;curved=0;rounded=0;" edge="1" parent="9nLJJ0F7ikuXCO1Y2BuM-1">
          <mxGeometry width="80" relative="1" as="geometry">
            <mxPoint x="621" y="528" as="sourcePoint" />
            <mxPoint x="864" y="528" as="targetPoint" />
          </mxGeometry>
        </mxCell>
        <mxCell id="SOhxgNJ4NdXpTSdJjQIJ-27" value="Hiển thị kết quả&amp;nbsp;" style="html=1;verticalAlign=bottom;endArrow=open;dashed=1;endSize=8;curved=0;rounded=0;" edge="1" parent="9nLJJ0F7ikuXCO1Y2BuM-1" source="SOhxgNJ4NdXpTSdJjQIJ-6" target="SOhxgNJ4NdXpTSdJjQIJ-10">
          <mxGeometry relative="1" as="geometry">
            <mxPoint x="845" y="593" as="sourcePoint" />
            <mxPoint x="614" y="593" as="targetPoint" />
            <Array as="points">
              <mxPoint x="723" y="560" />
            </Array>
          </mxGeometry>
        </mxCell>
        <mxCell id="SOhxgNJ4NdXpTSdJjQIJ-28" value="Hiển thị kết quả&amp;nbsp;" style="html=1;verticalAlign=bottom;endArrow=open;dashed=1;endSize=8;curved=0;rounded=0;" edge="1" parent="9nLJJ0F7ikuXCO1Y2BuM-1" source="SOhxgNJ4NdXpTSdJjQIJ-10" target="9nLJJ0F7ikuXCO1Y2BuM-4">
          <mxGeometry relative="1" as="geometry">
            <mxPoint x="531" y="576" as="sourcePoint" />
            <mxPoint x="298" y="576" as="targetPoint" />
            <Array as="points">
              <mxPoint x="452" y="566" />
              <mxPoint x="403" y="566" />
            </Array>
          </mxGeometry>
        </mxCell>
        <mxCell id="SOhxgNJ4NdXpTSdJjQIJ-29" value="Hiển thị phòng đã chọn&lt;div&gt;và số tiền&lt;/div&gt;" style="html=1;verticalAlign=bottom;endArrow=open;dashed=1;endSize=8;curved=0;rounded=0;" edge="1" parent="9nLJJ0F7ikuXCO1Y2BuM-1">
          <mxGeometry relative="1" as="geometry">
            <mxPoint x="236" y="584" as="sourcePoint" />
            <mxPoint x="118" y="584" as="targetPoint" />
          </mxGeometry>
        </mxCell>
        <mxCell id="SOhxgNJ4NdXpTSdJjQIJ-30" value="Chọn đặt phòng" style="html=1;verticalAlign=bottom;endArrow=block;curved=0;rounded=0;" edge="1" parent="9nLJJ0F7ikuXCO1Y2BuM-1">
          <mxGeometry width="80" relative="1" as="geometry">
            <mxPoint x="121" y="625" as="sourcePoint" />
            <mxPoint x="239" y="625" as="targetPoint" />
          </mxGeometry>
        </mxCell>
        <mxCell id="SOhxgNJ4NdXpTSdJjQIJ-31" value="Kiểm tra thông tin hợp lệ" style="html=1;verticalAlign=bottom;endArrow=block;curved=0;rounded=0;" edge="1" parent="9nLJJ0F7ikuXCO1Y2BuM-1" source="9nLJJ0F7ikuXCO1Y2BuM-5">
          <mxGeometry width="80" relative="1" as="geometry">
            <mxPoint x="382" y="628" as="sourcePoint" />
            <mxPoint x="371" y="628" as="targetPoint" />
          </mxGeometry>
        </mxCell>
        <mxCell id="SOhxgNJ4NdXpTSdJjQIJ-33" value="Gửi yêu cầu cập nhật trạng thái phòng" style="html=1;verticalAlign=bottom;endArrow=block;curved=0;rounded=0;" edge="1" parent="9nLJJ0F7ikuXCO1Y2BuM-1">
          <mxGeometry width="80" relative="1" as="geometry">
            <mxPoint x="380.5" y="632" as="sourcePoint" />
            <mxPoint x="609.5" y="632" as="targetPoint" />
          </mxGeometry>
        </mxCell>
        <mxCell id="SOhxgNJ4NdXpTSdJjQIJ-36" value="Cập nhật trạng thái phòng -&amp;gt; occupied" style="html=1;verticalAlign=bottom;endArrow=block;curved=0;rounded=0;" edge="1" parent="9nLJJ0F7ikuXCO1Y2BuM-1" source="SOhxgNJ4NdXpTSdJjQIJ-32" target="SOhxgNJ4NdXpTSdJjQIJ-5">
          <mxGeometry width="80" relative="1" as="geometry">
            <mxPoint x="618" y="722" as="sourcePoint" />
            <mxPoint x="731" y="633" as="targetPoint" />
            <Array as="points">
              <mxPoint x="711" y="622" />
            </Array>
          </mxGeometry>
        </mxCell>
        <mxCell id="SOhxgNJ4NdXpTSdJjQIJ-37" value="Thêm mới booking vào CSDL" style="html=1;verticalAlign=bottom;endArrow=block;curved=0;rounded=0;" edge="1" parent="9nLJJ0F7ikuXCO1Y2BuM-1" source="SOhxgNJ4NdXpTSdJjQIJ-5" target="SOhxgNJ4NdXpTSdJjQIJ-7">
          <mxGeometry width="80" relative="1" as="geometry">
            <mxPoint x="824.5" y="646" as="sourcePoint" />
            <mxPoint x="935.5" y="646" as="targetPoint" />
            <Array as="points">
              <mxPoint x="913" y="614" />
            </Array>
          </mxGeometry>
        </mxCell>
        <mxCell id="SOhxgNJ4NdXpTSdJjQIJ-38" value="Thông báo lưu thành công" style="html=1;verticalAlign=bottom;endArrow=open;dashed=1;endSize=8;curved=0;rounded=0;" edge="1" parent="9nLJJ0F7ikuXCO1Y2BuM-1" source="SOhxgNJ4NdXpTSdJjQIJ-7" target="9nLJJ0F7ikuXCO1Y2BuM-10">
          <mxGeometry relative="1" as="geometry">
            <mxPoint x="723" y="719" as="sourcePoint" />
            <mxPoint x="643" y="719" as="targetPoint" />
            <Array as="points">
              <mxPoint x="667" y="708" />
            </Array>
          </mxGeometry>
        </mxCell>
        <mxCell id="SOhxgNJ4NdXpTSdJjQIJ-39" value="Hiển thị thông báo&amp;nbsp;&lt;div&gt;thành công&lt;/div&gt;" style="html=1;verticalAlign=bottom;endArrow=open;dashed=1;endSize=8;curved=0;rounded=0;" edge="1" parent="9nLJJ0F7ikuXCO1Y2BuM-1" source="9nLJJ0F7ikuXCO1Y2BuM-10" target="9nLJJ0F7ikuXCO1Y2BuM-5">
          <mxGeometry relative="1" as="geometry">
            <mxPoint x="515" y="792" as="sourcePoint" />
            <mxPoint x="-68" y="792" as="targetPoint" />
            <Array as="points">
              <mxPoint x="277" y="719" />
            </Array>
          </mxGeometry>
        </mxCell>
        <mxCell id="SOhxgNJ4NdXpTSdJjQIJ-40" value="Chuyển sang trang&amp;nbsp;&lt;div&gt;hóa đơn&lt;/div&gt;" style="html=1;verticalAlign=bottom;endArrow=open;dashed=1;endSize=8;curved=0;rounded=0;" edge="1" parent="9nLJJ0F7ikuXCO1Y2BuM-1">
          <mxGeometry relative="1" as="geometry">
            <mxPoint x="240" y="727" as="sourcePoint" />
            <mxPoint x="117" y="727" as="targetPoint" />
            <Array as="points">
              <mxPoint x="146" y="727" />
            </Array>
          </mxGeometry>
        </mxCell>
      </root>
    </mxGraphModel>
  </diagram>
  <diagram id="BtpBTjhw_U4pahVxTX9g" name="sequence đặt order">
    <mxGraphModel dx="1787" dy="1197" grid="0" gridSize="10" guides="1" tooltips="1" connect="1" arrows="1" fold="1" page="0" pageScale="1" pageWidth="850" pageHeight="1100" math="0" shadow="0">
      <root>
        <mxCell id="0" />
        <mxCell id="1" parent="0" />
        <mxCell id="8xNn_9FozzrywzNil-UJ-1" value="" style="shape=umlLifeline;perimeter=lifelinePerimeter;whiteSpace=wrap;html=1;container=1;dropTarget=0;collapsible=0;recursiveResize=0;outlineConnect=0;portConstraint=eastwest;newEdgeStyle={&quot;curved&quot;:0,&quot;rounded&quot;:0};participant=umlActor;" vertex="1" parent="1">
          <mxGeometry x="-170" y="-38" width="20" height="454" as="geometry" />
        </mxCell>
        <mxCell id="8xNn_9FozzrywzNil-UJ-16" value="" style="html=1;points=[[0,0,0,0,5],[0,1,0,0,-5],[1,0,0,0,5],[1,1,0,0,-5]];perimeter=orthogonalPerimeter;outlineConnect=0;targetShapes=umlLifeline;portConstraint=eastwest;newEdgeStyle={&quot;curved&quot;:0,&quot;rounded&quot;:0};" vertex="1" parent="8xNn_9FozzrywzNil-UJ-1">
          <mxGeometry x="5" y="55" width="10" height="233" as="geometry" />
        </mxCell>
        <mxCell id="8xNn_9FozzrywzNil-UJ-2" value="user" style="text;html=1;align=center;verticalAlign=middle;resizable=0;points=[];autosize=1;strokeColor=none;fillColor=none;" vertex="1" parent="1">
          <mxGeometry x="-180.5" y="-64" width="41" height="26" as="geometry" />
        </mxCell>
        <mxCell id="8xNn_9FozzrywzNil-UJ-3" value="" style="shape=umlLifeline;perimeter=lifelinePerimeter;whiteSpace=wrap;html=1;container=1;dropTarget=0;collapsible=0;recursiveResize=0;outlineConnect=0;portConstraint=eastwest;newEdgeStyle={&quot;curved&quot;:0,&quot;rounded&quot;:0};participant=umlBoundary;" vertex="1" parent="1">
          <mxGeometry x="52" y="-40" width="50" height="442" as="geometry" />
        </mxCell>
        <mxCell id="8xNn_9FozzrywzNil-UJ-20" value="" style="html=1;points=[[0,0,0,0,5],[0,1,0,0,-5],[1,0,0,0,5],[1,1,0,0,-5]];perimeter=orthogonalPerimeter;outlineConnect=0;targetShapes=umlLifeline;portConstraint=eastwest;newEdgeStyle={&quot;curved&quot;:0,&quot;rounded&quot;:0};" vertex="1" parent="8xNn_9FozzrywzNil-UJ-3">
          <mxGeometry x="20" y="129" width="10" height="56" as="geometry" />
        </mxCell>
        <mxCell id="8xNn_9FozzrywzNil-UJ-4" value="" style="shape=umlLifeline;perimeter=lifelinePerimeter;whiteSpace=wrap;html=1;container=1;dropTarget=0;collapsible=0;recursiveResize=0;outlineConnect=0;portConstraint=eastwest;newEdgeStyle={&quot;curved&quot;:0,&quot;rounded&quot;:0};participant=umlBoundary;" vertex="1" parent="1">
          <mxGeometry x="-46" y="-41" width="50" height="440" as="geometry" />
        </mxCell>
        <mxCell id="8xNn_9FozzrywzNil-UJ-17" value="" style="html=1;points=[[0,0,0,0,5],[0,1,0,0,-5],[1,0,0,0,5],[1,1,0,0,-5]];perimeter=orthogonalPerimeter;outlineConnect=0;targetShapes=umlLifeline;portConstraint=eastwest;newEdgeStyle={&quot;curved&quot;:0,&quot;rounded&quot;:0};" vertex="1" parent="8xNn_9FozzrywzNil-UJ-4">
          <mxGeometry x="20" y="62" width="10" height="63" as="geometry" />
        </mxCell>
        <mxCell id="8xNn_9FozzrywzNil-UJ-5" value="" style="shape=umlLifeline;perimeter=lifelinePerimeter;whiteSpace=wrap;html=1;container=1;dropTarget=0;collapsible=0;recursiveResize=0;outlineConnect=0;portConstraint=eastwest;newEdgeStyle={&quot;curved&quot;:0,&quot;rounded&quot;:0};participant=umlEntity;" vertex="1" parent="1">
          <mxGeometry x="467" y="-36" width="40" height="426" as="geometry" />
        </mxCell>
        <mxCell id="8xNn_9FozzrywzNil-UJ-37" value="" style="html=1;points=[[0,0,0,0,5],[0,1,0,0,-5],[1,0,0,0,5],[1,1,0,0,-5]];perimeter=orthogonalPerimeter;outlineConnect=0;targetShapes=umlLifeline;portConstraint=eastwest;newEdgeStyle={&quot;curved&quot;:0,&quot;rounded&quot;:0};" vertex="1" parent="8xNn_9FozzrywzNil-UJ-5">
          <mxGeometry x="15" y="228" width="10" height="74" as="geometry" />
        </mxCell>
        <mxCell id="8xNn_9FozzrywzNil-UJ-6" value="" style="shape=umlLifeline;perimeter=lifelinePerimeter;whiteSpace=wrap;html=1;container=1;dropTarget=0;collapsible=0;recursiveResize=0;outlineConnect=0;portConstraint=eastwest;newEdgeStyle={&quot;curved&quot;:0,&quot;rounded&quot;:0};participant=umlControl;" vertex="1" parent="1">
          <mxGeometry x="244" y="-42" width="40" height="433" as="geometry" />
        </mxCell>
        <mxCell id="8xNn_9FozzrywzNil-UJ-29" value="" style="html=1;points=[[0,0,0,0,5],[0,1,0,0,-5],[1,0,0,0,5],[1,1,0,0,-5]];perimeter=orthogonalPerimeter;outlineConnect=0;targetShapes=umlLifeline;portConstraint=eastwest;newEdgeStyle={&quot;curved&quot;:0,&quot;rounded&quot;:0};" vertex="1" parent="8xNn_9FozzrywzNil-UJ-6">
          <mxGeometry x="15" y="134" width="10" height="126" as="geometry" />
        </mxCell>
        <mxCell id="8xNn_9FozzrywzNil-UJ-7" value="" style="shape=umlLifeline;perimeter=lifelinePerimeter;whiteSpace=wrap;html=1;container=1;dropTarget=0;collapsible=0;recursiveResize=0;outlineConnect=0;portConstraint=eastwest;newEdgeStyle={&quot;curved&quot;:0,&quot;rounded&quot;:0};participant=umlControl;" vertex="1" parent="1">
          <mxGeometry x="353" y="-38" width="40" height="432" as="geometry" />
        </mxCell>
        <mxCell id="8xNn_9FozzrywzNil-UJ-30" value="" style="html=1;points=[[0,0,0,0,5],[0,1,0,0,-5],[1,0,0,0,5],[1,1,0,0,-5]];perimeter=orthogonalPerimeter;outlineConnect=0;targetShapes=umlLifeline;portConstraint=eastwest;newEdgeStyle={&quot;curved&quot;:0,&quot;rounded&quot;:0};" vertex="1" parent="8xNn_9FozzrywzNil-UJ-7">
          <mxGeometry x="15" y="127" width="10" height="74" as="geometry" />
        </mxCell>
        <mxCell id="8xNn_9FozzrywzNil-UJ-8" value="" style="shape=umlLifeline;perimeter=lifelinePerimeter;whiteSpace=wrap;html=1;container=1;dropTarget=0;collapsible=0;recursiveResize=0;outlineConnect=0;portConstraint=eastwest;newEdgeStyle={&quot;curved&quot;:0,&quot;rounded&quot;:0};participant=umlEntity;" vertex="1" parent="1">
          <mxGeometry x="570" y="-38" width="40" height="445" as="geometry" />
        </mxCell>
        <mxCell id="8xNn_9FozzrywzNil-UJ-33" value="" style="html=1;points=[[0,0,0,0,5],[0,1,0,0,-5],[1,0,0,0,5],[1,1,0,0,-5]];perimeter=orthogonalPerimeter;outlineConnect=0;targetShapes=umlLifeline;portConstraint=eastwest;newEdgeStyle={&quot;curved&quot;:0,&quot;rounded&quot;:0};" vertex="1" parent="8xNn_9FozzrywzNil-UJ-8">
          <mxGeometry x="15" y="125" width="10" height="103" as="geometry" />
        </mxCell>
        <mxCell id="8xNn_9FozzrywzNil-UJ-9" value="view menu" style="text;html=1;align=center;verticalAlign=middle;resizable=0;points=[];autosize=1;strokeColor=none;fillColor=none;" vertex="1" parent="1">
          <mxGeometry x="-58.5" y="-64" width="75" height="26" as="geometry" />
        </mxCell>
        <mxCell id="8xNn_9FozzrywzNil-UJ-10" value="view cart" style="text;html=1;align=center;verticalAlign=middle;resizable=0;points=[];autosize=1;strokeColor=none;fillColor=none;" vertex="1" parent="1">
          <mxGeometry x="52" y="-64" width="65" height="26" as="geometry" />
        </mxCell>
        <mxCell id="8xNn_9FozzrywzNil-UJ-11" value="orderController" style="text;html=1;align=center;verticalAlign=middle;resizable=0;points=[];autosize=1;strokeColor=none;fillColor=none;" vertex="1" parent="1">
          <mxGeometry x="215" y="-59" width="98" height="26" as="geometry" />
        </mxCell>
        <mxCell id="8xNn_9FozzrywzNil-UJ-12" value="orderItem controller" style="text;html=1;align=center;verticalAlign=middle;resizable=0;points=[];autosize=1;strokeColor=none;fillColor=none;" vertex="1" parent="1">
          <mxGeometry x="317" y="-57" width="122" height="26" as="geometry" />
        </mxCell>
        <mxCell id="8xNn_9FozzrywzNil-UJ-14" value="tbl orders" style="text;html=1;align=center;verticalAlign=middle;resizable=0;points=[];autosize=1;strokeColor=none;fillColor=none;" vertex="1" parent="1">
          <mxGeometry x="453" y="-57" width="68" height="26" as="geometry" />
        </mxCell>
        <mxCell id="8xNn_9FozzrywzNil-UJ-15" value="tbl orderItem" style="text;html=1;align=center;verticalAlign=middle;resizable=0;points=[];autosize=1;strokeColor=none;fillColor=none;" vertex="1" parent="1">
          <mxGeometry x="547.5" y="-55" width="85" height="26" as="geometry" />
        </mxCell>
        <mxCell id="8xNn_9FozzrywzNil-UJ-18" value="Chọn đồ ăn ở menu" style="html=1;verticalAlign=bottom;endArrow=block;curved=0;rounded=0;" edge="1" parent="1" target="8xNn_9FozzrywzNil-UJ-4">
          <mxGeometry width="80" relative="1" as="geometry">
            <mxPoint x="-155" y="39" as="sourcePoint" />
            <mxPoint x="-75" y="39" as="targetPoint" />
          </mxGeometry>
        </mxCell>
        <mxCell id="8xNn_9FozzrywzNil-UJ-19" value="Thêm vào giỏ hàng" style="html=1;verticalAlign=bottom;endArrow=open;dashed=1;endSize=8;curved=0;rounded=0;" edge="1" parent="1" source="8xNn_9FozzrywzNil-UJ-17" target="8xNn_9FozzrywzNil-UJ-1">
          <mxGeometry relative="1" as="geometry">
            <mxPoint x="246" y="183" as="sourcePoint" />
            <mxPoint x="166" y="183" as="targetPoint" />
            <Array as="points">
              <mxPoint x="-93" y="68" />
            </Array>
          </mxGeometry>
        </mxCell>
        <mxCell id="8xNn_9FozzrywzNil-UJ-21" value="" style="html=1;verticalAlign=bottom;endArrow=block;curved=0;rounded=0;" edge="1" parent="1" source="8xNn_9FozzrywzNil-UJ-16" target="8xNn_9FozzrywzNil-UJ-20">
          <mxGeometry width="80" relative="1" as="geometry">
            <mxPoint x="-160" y="104.5" as="sourcePoint" />
            <mxPoint x="65" y="101" as="targetPoint" />
            <Array as="points">
              <mxPoint x="-44" y="100" />
            </Array>
          </mxGeometry>
        </mxCell>
        <mxCell id="8xNn_9FozzrywzNil-UJ-22" value="bấm xác nhận đặt hàng" style="edgeLabel;html=1;align=center;verticalAlign=middle;resizable=0;points=[];" vertex="1" connectable="0" parent="8xNn_9FozzrywzNil-UJ-21">
          <mxGeometry x="-0.0081" y="4" relative="1" as="geometry">
            <mxPoint y="1" as="offset" />
          </mxGeometry>
        </mxCell>
        <mxCell id="8xNn_9FozzrywzNil-UJ-23" value="" style="shape=umlLifeline;perimeter=lifelinePerimeter;whiteSpace=wrap;html=1;container=1;dropTarget=0;collapsible=0;recursiveResize=0;outlineConnect=0;portConstraint=eastwest;newEdgeStyle={&quot;curved&quot;:0,&quot;rounded&quot;:0};participant=umlBoundary;" vertex="1" parent="1">
          <mxGeometry x="147" y="-42" width="50" height="434" as="geometry" />
        </mxCell>
        <mxCell id="8xNn_9FozzrywzNil-UJ-24" value="" style="html=1;points=[[0,0,0,0,5],[0,1,0,0,-5],[1,0,0,0,5],[1,1,0,0,-5]];perimeter=orthogonalPerimeter;outlineConnect=0;targetShapes=umlLifeline;portConstraint=eastwest;newEdgeStyle={&quot;curved&quot;:0,&quot;rounded&quot;:0};" vertex="1" parent="8xNn_9FozzrywzNil-UJ-23">
          <mxGeometry x="20" y="129" width="10" height="170" as="geometry" />
        </mxCell>
        <mxCell id="8xNn_9FozzrywzNil-UJ-25" value="view hóa đơn" style="text;html=1;align=center;verticalAlign=middle;resizable=0;points=[];autosize=1;strokeColor=none;fillColor=none;" vertex="1" parent="1">
          <mxGeometry x="130" y="-61" width="90" height="26" as="geometry" />
        </mxCell>
        <mxCell id="8xNn_9FozzrywzNil-UJ-26" value="chọn hình thức&lt;div&gt;&amp;nbsp;vận chuyển,&lt;/div&gt;&lt;div&gt;thanh toán&lt;/div&gt;" style="html=1;verticalAlign=bottom;endArrow=block;curved=0;rounded=0;" edge="1" parent="1" source="8xNn_9FozzrywzNil-UJ-20" target="8xNn_9FozzrywzNil-UJ-24">
          <mxGeometry width="80" relative="1" as="geometry">
            <mxPoint x="166" y="183" as="sourcePoint" />
            <mxPoint x="246" y="183" as="targetPoint" />
            <Array as="points">
              <mxPoint x="128" y="100" />
            </Array>
          </mxGeometry>
        </mxCell>
        <mxCell id="8xNn_9FozzrywzNil-UJ-31" value="xác thức&amp;nbsp;&lt;div&gt;thông tin&lt;/div&gt;" style="html=1;verticalAlign=bottom;endArrow=block;curved=0;rounded=0;" edge="1" parent="1" source="8xNn_9FozzrywzNil-UJ-24" target="8xNn_9FozzrywzNil-UJ-29">
          <mxGeometry width="80" relative="1" as="geometry">
            <mxPoint x="166" y="183" as="sourcePoint" />
            <mxPoint x="246" y="183" as="targetPoint" />
            <Array as="points">
              <mxPoint x="217" y="109" />
            </Array>
          </mxGeometry>
        </mxCell>
        <mxCell id="8xNn_9FozzrywzNil-UJ-32" value="Xử lý dữ liệu" style="html=1;verticalAlign=bottom;endArrow=block;curved=0;rounded=0;" edge="1" parent="1">
          <mxGeometry width="80" relative="1" as="geometry">
            <mxPoint x="270" y="116" as="sourcePoint" />
            <mxPoint x="373.5" y="116" as="targetPoint" />
          </mxGeometry>
        </mxCell>
        <mxCell id="8xNn_9FozzrywzNil-UJ-34" value="cập nhật số lượng của item" style="html=1;verticalAlign=bottom;endArrow=block;curved=0;rounded=0;" edge="1" parent="1" source="8xNn_9FozzrywzNil-UJ-30" target="8xNn_9FozzrywzNil-UJ-33">
          <mxGeometry width="80" relative="1" as="geometry">
            <mxPoint x="280" y="126" as="sourcePoint" />
            <mxPoint x="383.5" y="126" as="targetPoint" />
          </mxGeometry>
        </mxCell>
        <mxCell id="8xNn_9FozzrywzNil-UJ-35" value="Thông báo hoàn thành" style="html=1;verticalAlign=bottom;endArrow=open;dashed=1;endSize=8;curved=0;rounded=0;" edge="1" parent="1" source="8xNn_9FozzrywzNil-UJ-33" target="8xNn_9FozzrywzNil-UJ-6">
          <mxGeometry relative="1" as="geometry">
            <mxPoint x="246" y="183" as="sourcePoint" />
            <mxPoint x="166" y="183" as="targetPoint" />
            <Array as="points">
              <mxPoint x="489" y="175" />
            </Array>
          </mxGeometry>
        </mxCell>
        <mxCell id="8xNn_9FozzrywzNil-UJ-38" value="Thêm mới order" style="html=1;verticalAlign=bottom;endArrow=block;curved=0;rounded=0;exitX=0;exitY=1;exitDx=0;exitDy=-5;exitPerimeter=0;" edge="1" parent="1" source="8xNn_9FozzrywzNil-UJ-29" target="8xNn_9FozzrywzNil-UJ-37">
          <mxGeometry width="80" relative="1" as="geometry">
            <mxPoint x="284" y="216" as="sourcePoint" />
            <mxPoint x="387.5" y="216" as="targetPoint" />
            <Array as="points">
              <mxPoint x="374" y="211" />
            </Array>
          </mxGeometry>
        </mxCell>
        <mxCell id="8xNn_9FozzrywzNil-UJ-39" value="Thông báo hoàn thành" style="html=1;verticalAlign=bottom;endArrow=open;dashed=1;endSize=8;curved=0;rounded=0;" edge="1" parent="1" source="8xNn_9FozzrywzNil-UJ-37" target="8xNn_9FozzrywzNil-UJ-23">
          <mxGeometry relative="1" as="geometry">
            <mxPoint x="470" y="302" as="sourcePoint" />
            <mxPoint x="149" y="302" as="targetPoint" />
            <Array as="points">
              <mxPoint x="377" y="246" />
            </Array>
          </mxGeometry>
        </mxCell>
        <mxCell id="8xNn_9FozzrywzNil-UJ-40" value="Thông báo hoàn thành" style="html=1;verticalAlign=bottom;endArrow=open;dashed=1;endSize=8;curved=0;rounded=0;entryX=0;entryY=1;entryDx=0;entryDy=-5;entryPerimeter=0;" edge="1" parent="1" source="8xNn_9FozzrywzNil-UJ-23" target="8xNn_9FozzrywzNil-UJ-16">
          <mxGeometry relative="1" as="geometry">
            <mxPoint x="191" y="339" as="sourcePoint" />
            <mxPoint x="-119" y="339" as="targetPoint" />
            <Array as="points">
              <mxPoint x="86" y="245" />
            </Array>
          </mxGeometry>
        </mxCell>
      </root>
    </mxGraphModel>
  </diagram>
</mxfile>
